<svg width="14" height="13" viewBox="0 0 14 13" fill="none" xmlns="http://www.w3.org/2000/svg">
<g clip-path="url(#clip0_486_2853)">
<path d="M4.48967 5.28115C4.04025 5.28115 3.67717 5.6417 3.67717 6.0708C3.67717 6.54307 4.04025 6.90615 4.48967 6.90615C4.93908 6.90615 5.27932 6.54434 5.27932 6.09365C5.27932 5.64297 4.94162 5.28115 4.48967 5.28115ZM7.33342 5.2583C6.88273 5.2583 6.54377 5.62012 6.54377 6.0708C6.54377 6.52148 6.90559 6.86045 7.33342 6.86045C7.76125 6.86045 8.12307 6.49863 8.12307 6.0708C8.12307 5.64297 7.78537 5.2583 7.33342 5.2583ZM10.1772 5.28115C9.72648 5.28115 9.38752 5.64297 9.38752 6.09365C9.38752 6.54434 9.74934 6.90615 10.1772 6.90615C10.6279 6.90615 10.9894 6.54434 10.9894 6.09365C10.9897 5.6417 10.6291 5.28115 10.1772 5.28115ZM7.33342 0.789551C3.74318 0.789551 0.856269 3.15393 0.856269 6.0708C0.856269 7.2799 1.3618 8.38769 2.19969 9.27764C1.82213 10.2806 1.03502 11.1281 1.02232 11.1375C0.854137 11.3152 0.809728 11.5755 0.904918 11.7977C0.98114 12.0401 1.19853 12.1874 1.44279 12.1874C3.00406 12.1874 4.21291 11.5336 4.97463 11.0131C5.70766 11.2416 6.50213 11.3749 7.33342 11.3749C10.9237 11.3749 13.8106 9.01027 13.8106 6.1165C13.8106 3.22273 10.9237 0.789551 7.33342 0.789551ZM7.33342 10.1562C6.65422 10.1562 5.98467 10.0514 5.34381 9.84842L4.76617 9.66751L4.27131 10.0165C3.90949 10.2735 3.41133 10.5594 2.8116 10.7528C2.99883 10.4451 3.17646 10.099 3.31611 9.73086L3.58576 9.01992L3.06221 8.46463C2.60594 7.9751 2.05369 7.16514 2.05369 6.09365C2.05369 3.85293 4.42111 2.03115 7.31209 2.03115C10.2031 2.03115 12.5705 3.85293 12.5705 6.09365C12.5705 8.33437 10.2483 10.1562 7.33342 10.1562Z" fill="white"/>
</g>
<defs>
<clipPath id="clip0_486_2853">
<rect width="13" height="13" fill="white" transform="translate(0.833374)"/>
</clipPath>
</defs>
</svg>
